<?xml version="1.0" encoding="UTF-8"?>
<svg xmlns="http://www.w3.org/2000/svg" xmlns:xlink="http://www.w3.org/1999/xlink" width="150px" height="150px" viewBox="0 0 150 150" version="1.1">
<g id="surface1">
<path style=" stroke:none;fill-rule:nonzero;fill:rgb(20.39%, 20.39%, 20.39%);fill-opacity:1;" d="M 117.167969 4.6875 C 115.140625 4.6875 113.117188 4.96875 111.167969 5.492188 L 111.167969 5.484375 C 107.207031 6.539062 103.59375 8.617188 100.695312 11.515625 C 95.023438 17.1875 93.3125 25.054688 94.710938 32.382812 L 72.992188 54.089844 C 71.601562 52.964844 69.875 52.347656 68.085938 52.332031 C 66.070312 52.332031 64.03125 53.109375 62.492188 54.648438 L 60.207031 56.933594 L 30.039062 26.769531 L 31.339844 25.472656 C 31.859375 24.949219 32.101562 24.214844 31.996094 23.484375 L 31.015625 16.59375 C 30.925781 15.957031 30.578125 15.386719 30.054688 15.015625 L 16.269531 5.171875 C 15.886719 4.894531 15.429688 4.738281 14.957031 4.726562 L 14.957031 4.734375 C 14.320312 4.722656 13.707031 4.96875 13.257812 5.417969 L 5.371094 13.292969 C 4.5625 14.105469 4.460938 15.382812 5.128906 16.3125 L 14.972656 30.101562 C 15.34375 30.625 15.910156 30.972656 16.542969 31.0625 L 23.4375 32.042969 C 24.167969 32.152344 24.910156 31.910156 25.433594 31.386719 L 26.722656 30.085938 L 56.890625 60.253906 L 54.609375 62.53125 C 51.792969 65.386719 51.554688 69.894531 54.050781 73.03125 L 32.324219 94.757812 C 25.003906 93.367188 17.140625 95.078125 11.46875 100.742188 C 5.578125 106.648438 3.28125 115.25 5.445312 123.304688 C 5.664062 124.113281 6.296875 124.742188 7.105469 124.960938 C 7.910156 125.175781 8.773438 124.945312 9.367188 124.355469 L 21.179688 112.539062 L 29.851562 115.429688 L 32.726562 124.101562 L 20.914062 135.914062 C 20.328125 136.507812 20.101562 137.371094 20.316406 138.175781 C 20.535156 138.984375 21.167969 139.613281 21.976562 139.828125 C 30.03125 141.984375 38.625 139.691406 44.53125 133.804688 C 50.203125 128.132812 51.914062 120.265625 50.515625 112.941406 L 68.234375 95.222656 L 113.699219 140.691406 C 116.796875 143.761719 121.792969 143.761719 124.890625 140.691406 L 140.640625 124.929688 C 143.710938 121.832031 143.710938 116.835938 140.640625 113.738281 L 95.179688 68.277344 L 112.894531 50.5625 C 120.21875 51.960938 128.078125 50.25 133.753906 44.578125 C 133.753906 44.578125 133.757812 44.578125 133.757812 44.578125 C 139.648438 38.671875 141.945312 30.074219 139.78125 22.015625 C 139.5625 21.210938 138.933594 20.578125 138.125 20.363281 C 137.316406 20.144531 136.453125 20.375 135.863281 20.96875 L 124.050781 32.78125 L 115.382812 29.890625 L 112.492188 21.21875 L 124.3125 9.40625 C 124.902344 8.816406 125.128906 7.953125 124.910156 7.148438 C 124.695312 6.339844 124.0625 5.710938 123.257812 5.492188 C 121.273438 4.957031 119.226562 4.6875 117.167969 4.6875 Z M 114.707031 9.851562 C 115.496094 9.898438 116.289062 10.007812 117.078125 10.007812 L 108.148438 18.933594 C 107.523438 19.5625 107.308594 20.492188 107.59375 21.332031 L 111.308594 32.484375 C 111.542969 33.183594 112.09375 33.734375 112.796875 33.964844 L 123.941406 37.683594 C 124.785156 37.964844 125.714844 37.746094 126.34375 37.117188 L 135.257812 28.199219 C 135.214844 33.023438 133.9375 37.761719 130.433594 41.265625 C 125.550781 46.140625 118.6875 47.671875 112.453125 46.023438 C 111.644531 45.808594 110.785156 46.042969 110.195312 46.636719 L 46.589844 110.242188 C 45.996094 110.832031 45.765625 111.691406 45.980469 112.5 C 47.625 118.734375 46.097656 125.597656 41.21875 130.480469 C 37.707031 133.976562 32.976562 135.261719 28.152344 135.308594 L 37.070312 126.390625 C 37.699219 125.761719 37.917969 124.832031 37.636719 123.988281 L 33.917969 112.835938 C 33.683594 112.136719 33.136719 111.589844 32.4375 111.355469 L 21.285156 107.640625 C 20.441406 107.359375 19.515625 107.578125 18.886719 108.207031 L 9.960938 117.132812 C 10 112.304688 11.277344 107.570312 14.789062 104.058594 C 19.667969 99.179688 26.535156 97.648438 32.773438 99.300781 C 33.582031 99.507812 34.4375 99.277344 35.023438 98.6875 L 98.644531 35.082031 C 99.234375 34.492188 99.46875 33.628906 99.253906 32.820312 C 97.609375 26.582031 99.132812 19.71875 104.015625 14.832031 C 106.332031 12.511719 109.21875 10.847656 112.386719 10.003906 C 113.140625 9.804688 113.925781 9.800781 114.710938 9.851562 Z M 15.160156 10.132812 L 26.511719 18.242188 L 27.191406 22.988281 L 25.070312 25.109375 L 22.945312 27.238281 L 18.203125 26.558594 L 10.09375 15.207031 Z M 68.085938 57.019531 C 68.632812 57.019531 69.144531 57.195312 69.628906 57.46875 L 57.429688 69.660156 C 56.691406 68.429688 56.894531 66.851562 57.921875 65.84375 L 65.808594 57.960938 C 66.410156 57.351562 67.230469 57.015625 68.085938 57.023438 Z M 91.867188 71.597656 L 137.328125 117.050781 C 137.949219 117.648438 138.296875 118.472656 138.296875 119.335938 C 138.296875 120.195312 137.949219 121.019531 137.328125 121.617188 L 121.574219 137.375 C 120.976562 137.996094 120.15625 138.347656 119.292969 138.347656 C 118.433594 138.347656 117.609375 137.996094 117.015625 137.375 L 71.546875 91.90625 L 76.105469 87.351562 L 121.574219 132.816406 L 124.890625 129.5 L 79.421875 84.03125 L 83.992188 79.46875 L 129.460938 124.9375 L 132.769531 121.617188 L 87.304688 76.152344 L 91.867188 71.59375 Z M 91.867188 71.597656 "/>
</g>
</svg>
